:SAMPLES-PER-SECOND 30
:FULLY-SPECIFIED
:DEGREES
445
root  -45.3132 39.6943 -2.22967 19.7955 79.8226 21.542
RightUpLeg  -18.1033 -7.50032 -9.52968
RightLeg  34.5214 1.12216 0.581024
RightFoot  -3.42653 -0.648462 9.02651
RightToes  -1.33073e-015 0 -3.6325e-017
Spine  7.31441 0.835867 -2.52778
Spine1  5.37894 1.19926 -3.48673
HEad  -6.35376 -14.5958 1.53089
LeftShoulder1  -0.463852 4.68104 -33.2369
LeftArm  5.53754 15.8443 -39.6518
LeftForeArm  22.9773 -18.3619 -5.42829
LeftHand  -0.0668012 7.92992 -1.01773
RightShoulder  -1.20238 -6.63528 31.8521
RightArm  3.57569 -7.1098 42.8558
RightForeArm  76.6364 79.5967 79.4416
RightHand  -1.69408 15.9615 -9.60334
LeftUpLeg  0.143435 4.9527 -6.58975
LeftLeg  13.7342 -1.20257 -1.56262
LeftFoot  -14.2226 0.184523 3.93592
LeftToes  -1.63346e-009 7.54925e-011 9.86887e-012
446
root  -44.4483 39.6798 -2.06388 22.8062 81.0941 24.2772
RightUpLeg  -18.8375 -7.14185 -8.57091
RightLeg  24.2036 1.83177 0.719628
RightFoot  -2.42524 -0.681502 8.50876
RightToes  -1.33073e-015 0 -3.6325e-017
Spine  7.27397 0.667527 -2.14514
Spine1  5.21213 1.20573 -3.55872
HEad  -6.55504 -17.2561 1.76437
LeftShoulder1  -0.399262 4.52709 -32.8737
LeftArm  6.85409 15.0749 -40.3755
LeftForeArm  22.4819 -19.0501 -5.18216
LeftHand  -0.0649416 7.48681 -1.223
RightShoulder  -1.30775 -6.85773 32.4667
RightArm  2.84375 -6.76431 42.9399
RightForeArm  78.394 79.6563 80.8123
RightHand  -1.68603 16.2566 -9.42622
LeftUpLeg  1.75188 4.97472 -6.38423
LeftLeg  12.8866 -2.46786 -1.59964
LeftFoot  -14.7655 0.224649 4.53636
LeftToes  -1.63346e-009 7.54925e-011 9.86887e-012
447
root  -43.5098 39.6186 -1.90358 26.6109 82.0517 27.9249
RightUpLeg  -18.8923 -7.3094 -7.836
RightLeg  13.5366 1.3259 0.139045
RightFoot  -2.04888 -0.702741 8.45982
RightToes  -1.33073e-015 0 -3.6325e-017
Spine  7.02217 0.581186 -1.98714
Spine1  5.29489 1.12741 -3.07953
HEad  -6.76765 -18.6519 2.41983
LeftShoulder1  -0.43365 4.60354 -33.2835
LeftArm  7.89416 14.0104 -40.582
LeftForeArm  22.402 -19.2987 -5.13158
LeftHand  -0.0532327 7.58915 -0.592165
RightShoulder  -1.22242 -6.66943 32.0839
RightArm  1.85989 -7.09693 43.4293
RightForeArm  81.3862 79.7606 82.5572
RightHand  -1.36994 15.7938 -7.93144
LeftUpLeg  3.61873 5.09399 -6.25923
LeftLeg  11.9888 -3.49965 -1.63765
LeftFoot  -15.4137 0.276626 5.17337
LeftToes  -1.63346e-009 7.54925e-011 9.86887e-012
448
root  -42.4957 39.522 -1.748 31.1215 82.5771 32.8002
RightUpLeg  -18.4266 -8.28415 -7.26184
RightLeg  4.59567 0.836441 -0.0898597
RightFoot  -2.23985 -0.714892 8.76675
RightToes  -1.33073e-015 0 -3.6325e-017
Spine  7.32916 0.57233 -1.21253
Spine1  5.27324 1.30963 -3.59806
HEad  -7.29874 -20.7533 3.58984
LeftShoulder1  -0.390911 4.49993 -33.098
LeftArm  7.51412 13.3995 -41.0009
LeftForeArm  22.3451 -19.2257 -5.15139
LeftHand  -0.0450931 7.83046 -0.0796853
RightShoulder  -1.25166 -6.73323 32.2263
RightArm  1.13536 -7.18416 43.6347
RightForeArm  81.0734 79.7214 83.5105
RightHand  -1.57842 14.8858 -9.42347
LeftUpLeg  6.2733 5.14095 -6.37964
LeftLeg  10.867 -4.1866 -1.47065
LeftFoot  -16.1367 0.323518 5.41744
LeftToes  -1.63346e-009 7.54925e-011 9.86887e-012
449
root  -41.4052 39.3248 -1.5397 33.8467 82.8925 36.0727
RightUpLeg  -18.2295 -8.35772 -6.91675
RightLeg  -0.56023 0.415443 0.292839
RightFoot  -1.70403 -0.867611 10.1242
RightToes  -1.33073e-015 0 -3.6325e-017
Spine  7.63061 0.663571 -0.923359
Spine1  5.36317 1.38755 -3.39219
HEad  -9.03496 -24.6827 4.18059
LeftShoulder1  -0.428837 4.59067 -33.3108
LeftArm  8.02522 12.9826 -41.1297
LeftForeArm  21.6517 -19.544 -5.03977
LeftHand  -0.0310901 7.60959 0.501649
RightShoulder  -1.28504 -6.79824 32.4777
RightArm  0.346258 -7.12017 43.3688
RightForeArm  83.3921 79.763 85.7763
RightHand  -1.55174 14.6593 -9.37475
LeftUpLeg  8.8402 5.69868 -5.94903
LeftLeg  10.7875 -5.30425 -1.68646
LeftFoot  -17.6425 0.402726 5.37131
LeftToes  -1.63346e-009 7.54925e-011 9.86887e-012
450
root  -40.2382 39.0288 -1.29214 34.9397 83.1873 37.9975
RightUpLeg  -18.5899 -8.25794 -6.50222
RightLeg  0.057592 0.253713 0.521745
RightFoot  -1.09972 -0.950466 10.4348
RightToes  -1.33073e-015 0 -3.6325e-017
Spine  8.18222 0.684607 -0.601507
Spine1  5.38528 1.36349 -3.06504
HEad  -8.94973 -25.289 3.73605
LeftShoulder1  -0.390392 4.49435 -33.2686
LeftArm  7.99997 13.1337 -41.3175
LeftForeArm  20.7077 -19.9589 -4.85925
LeftHand  -0.0365754 7.52519 0.2614
RightShoulder  -1.27113 -6.75571 32.5548
RightArm  -0.443176 -6.64101 43.5094
RightForeArm  82.1405 79.741 84.5573
RightHand  -1.63546 14.7185 -9.82738
LeftUpLeg  11.3826 6.20116 -5.34074
LeftLeg  11.7157 -6.01277 -1.72616
LeftFoot  -19.6429 0.527933 5.64235
LeftToes  -1.63346e-009 7.54925e-011 9.86887e-012
451
root  -38.9889 38.7317 -1.03777 35.726 83.881 39.2532
RightUpLeg  -19.8121 -8.52537 -5.64681
RightLeg  5.284 -0.700423 0.745182
RightFoot  -0.398532 -0.736589 7.92588
RightToes  -1.33073e-015 0 -3.6325e-017
Spine  8.13759 0.438865 0.21011
Spine1  5.74217 1.03612 -2.66974
HEad  -8.94493 -25.0684 3.59174
LeftShoulder1  -0.406165 4.53552 -33.2155
LeftArm  7.58959 13.4802 -41.3581
LeftForeArm  20.6311 -20.1123 -4.76476
LeftHand  -0.0268467 7.07255 0.747126
RightShoulder  -1.28269 -6.77853 32.6339
RightArm  -1.35007 -5.93869 43.5656
RightForeArm  78.4673 79.6589 80.9161
RightHand  -1.63898 14.7119 -9.85777
LeftUpLeg  13.6284 5.95941 -4.84315
LeftLeg  12.6616 -6.23381 -1.10554
LeftFoot  -21.5336 0.613944 5.43357
LeftToes  -1.63346e-009 7.54925e-011 9.86887e-012
452
root  -37.7173 38.5695 -0.760497 32.3307 85.3001 35.8629
RightUpLeg  -21.3851 -8.47089 -3.80653
RightLeg  11.356 -0.0455965 0.352914
RightFoot  3.63131 -0.261065 2.09912
RightToes  -1.33073e-015 0 -3.6325e-017
Spine  7.79194 0.152859 2.09203
Spine1  5.96511 0.653406 -1.91008
HEad  -8.20921 -26.6 2.59362
LeftShoulder1  -0.375754 4.47226 -32.6659
LeftArm  6.8478 13.9569 -41.6656
LeftForeArm  21.7882 -19.6329 -4.91807
LeftHand  -0.0381987 7.09175 0.0313683
RightShoulder  -1.3042 -6.81609 32.8366
RightArm  -2.79872 -5.97105 43.1052
RightForeArm  78.8649 79.6792 80.7626
RightHand  -1.57619 15.6433 -9.08702
LeftUpLeg  15.4264 4.76679 -3.54712
LeftLeg  13.466 -6.32257 -0.682659
LeftFoot  -22.4503 0.561693 4.3878
LeftToes  -1.63346e-009 7.54925e-011 9.86887e-012
453
root  -36.3228 38.3887 -0.428922 21.4055 86.7159 25.1699
RightUpLeg  -21.9148 -7.6709 -2.36042
RightLeg  16.589 0.302878 -0.0252146
RightFoot  6.08656 -0.0686762 0.672529
RightToes  -1.33073e-015 0 -3.6325e-017
Spine  7.44169 0.144891 3.78492
Spine1  6.16096 0.401201 -0.456874
HEad  -7.29397 -28.0977 1.66759
LeftShoulder1  -0.408525 4.54367 -33.1447
LeftArm  6.79424 13.9502 -41.2944
LeftForeArm  22.9269 -19.0745 -5.16235
LeftHand  -0.0372328 6.78829 -0.0597422
RightShoulder  -1.25687 -6.73013 32.4239
RightArm  -4.75747 -6.19002 42.1798
RightForeArm  78.9264 79.6639 81.8007
RightHand  -1.75725 15.7026 -10.0595
LeftUpLeg  16.859 2.66128 -1.91323
LeftLeg  15.8206 -5.81948 -1.01015
LeftFoot  -22.9842 0.397348 2.55985
LeftToes  -1.63346e-009 7.54925e-011 9.86887e-012
454
root  -34.8847 38.2348 -0.107152 -3.99957 87.0772 0.180359
RightUpLeg  -22.0419 -5.89451 -0.942191
RightLeg  22.4248 -1.06247 -0.708484
RightFoot  3.58131 0.148864 -0.956833
RightToes  -1.33073e-015 0 -3.6325e-017
Spine  7.67528 0.169153 6.49468
Spine1  5.91963 0.650449 -0.423328
HEad  -6.87494 -29.4801 1.31313
LeftShoulder1  -0.490363 4.7501 -33.1968
LeftArm  5.8674 14.3657 -41.1406
LeftForeArm  24.431 -18.7129 -5.24092
LeftHand  -0.0458954 7.03672 -0.567051
RightShoulder  -1.29565 -6.82817 32.4474
RightArm  -6.8422 -5.12532 40.8629
RightForeArm  72.478 79.42 76.1072
RightHand  -1.64755 15.0415 -9.76415
LeftUpLeg  17.5594 1.02926 -0.0356482
LeftLeg  20.2083 -5.64773 -2.03103
LeftFoot  -22.6954 0.0725987 -0.640287
LeftToes  -1.63346e-009 7.54925e-011 9.86887e-012
455
root  -33.5531 38.1551 0.189158 -24.9466 86.9614 -20.8367
RightUpLeg  -21.6383 -5.09382 0.321251
RightLeg  26.0072 -1.96225 -1.2678
RightFoot  0.812888 0.235899 -2.15135
RightToes  -1.33073e-015 0 -3.6325e-017
Spine  7.62491 0.173234 8.81677
Spine1  5.83773 0.909337 0.100592
HEad  -6.69699 -31.2111 0.927965
LeftShoulder1  -0.524356 4.83567 -33.2185
LeftArm  5.17839 14.8263 -40.8803
LeftForeArm  25.0195 -18.3916 -5.33765
LeftHand  -0.0520223 7.30666 -0.320197
RightShoulder  -1.22831 -6.66978 32.2623
RightArm  -9.29221 -3.06694 39.3851
RightForeArm  60.4269 78.6603 65.3596
RightHand  -1.78616 16.6605 -9.81001
LeftUpLeg  15.7686 1.01174 2.04276
LeftLeg  27.5762 -7.20405 -3.77737
LeftFoot  -19.8733 -0.235568 -4.9415
LeftToes  -1.63346e-009 7.54925e-011 9.86887e-012
456
root  -32.3477 38.1705 0.443924 -47.8699 87.2806 -44.3668
RightUpLeg  -21.0176 -5.45982 1.28445
RightLeg  27.9321 -2.48843 -1.66873
RightFoot  -1.83641 0.207236 -2.63244
RightToes  -1.33073e-015 0 -3.6325e-017
Spine  7.49616 -0.0133958 11.2037
Spine1  5.30932 1.09527 0.216133
HEad  -6.24145 -33.7711 0.861393
LeftShoulder1  -0.477452 4.72751 -32.8712
LeftArm  3.98215 14.9161 -40.9732
LeftForeArm  26.1391 -17.9596 -5.42739
LeftHand  -0.0543709 7.35027 -0.75407
RightShoulder  -1.15945 -6.53181 31.7465
RightArm  -12.2486 -0.540142 37.4178
RightForeArm  48.289 77.289 54.5675
RightHand  -1.92445 15.7737 -10.9503
LeftUpLeg  10.6771 0.669199 3.90122
LeftLeg  37.9186 -7.62222 -5.91135
LeftFoot  -12.0994 0.0326418 -8.55512
LeftToes  -1.63346e-009 7.54925e-011 9.86887e-012
